<svg width="32" height="32" viewBox="0 0 32 32" fill="none" xmlns="http://www.w3.org/2000/svg">
<path fill-rule="evenodd" clip-rule="evenodd" d="M13.6329 4.20571C13.888 4.46127 13.9855 4.83448 13.888 5.18214C13.3854 6.97456 13.3689 8.86847 13.8403 10.6694C14.3117 12.4703 15.2539 14.1132 16.5702 15.4296C17.8865 16.7459 19.5295 17.6881 21.3304 18.1595C23.1313 18.6309 25.0252 18.6144 26.8176 18.1118L27.0877 19.0746L28.051 19.3428C27.4654 21.4468 26.3388 23.3606 24.7833 24.8937C23.2279 26.4267 21.2979 27.5255 19.1856 28.0806C17.0734 28.6356 14.8526 28.6276 12.7444 28.0572C10.6362 27.4869 8.71425 26.3741 7.16995 24.8298C5.62566 23.2855 4.51292 21.3636 3.94257 19.2554C3.37222 17.1472 3.36417 14.9264 3.91922 12.8141C4.47427 10.7019 5.57305 8.77191 7.10612 7.21646C8.63918 5.66101 10.553 4.53437 12.657 3.94875C13.0049 3.85194 13.3779 3.95015 13.6329 4.20571ZM25.5361 20.4047C23.9655 20.6012 22.3661 20.498 20.824 20.0943C18.6797 19.533 16.7234 18.4111 15.156 16.8438C13.5887 15.2764 12.4667 13.3201 11.9055 11.1758C11.5018 9.63367 11.3986 8.03426 11.5951 6.46371C10.4567 6.9911 9.41771 7.72027 8.53054 8.62039C7.24277 9.92697 6.3198 11.5481 5.85355 13.3224C5.38731 15.0967 5.39407 16.9622 5.87316 18.7331C6.35226 20.504 7.28696 22.1184 8.58417 23.4156C9.88138 24.7128 11.4958 25.6475 13.2667 26.1266C15.0376 26.6057 16.903 26.6125 18.6773 26.1462C20.4516 25.68 22.0728 24.757 23.3794 23.4692C24.2795 22.5821 25.0087 21.5431 25.5361 20.4047Z" fill="#282828"/>
</svg>
