<svg width="32" height="32" viewBox="0 0 32 32" fill="none" xmlns="http://www.w3.org/2000/svg">
<path fill-rule="evenodd" clip-rule="evenodd" d="M16 9.5C12.4101 9.5 9.5 12.4101 9.5 16C9.5 19.5899 12.4101 22.5 16 22.5C19.5899 22.5 22.5 19.5899 22.5 16C22.5 12.4101 19.5899 9.5 16 9.5ZM7.5 16C7.5 11.3056 11.3056 7.5 16 7.5C20.6944 7.5 24.5 11.3056 24.5 16C24.5 20.6944 20.6944 24.5 16 24.5C11.3056 24.5 7.5 20.6944 7.5 16Z" fill="white"/>
<path fill-rule="evenodd" clip-rule="evenodd" d="M16 1C16.5523 1 17 1.44772 17 2V4.5C17 5.05228 16.5523 5.5 16 5.5C15.4477 5.5 15 5.05228 15 4.5V2C15 1.44772 15.4477 1 16 1Z" fill="white"/>
<path fill-rule="evenodd" clip-rule="evenodd" d="M5.39299 5.39299C5.78352 5.00247 6.41668 5.00247 6.8072 5.39299L8.56971 7.15549C8.96023 7.54602 8.96023 8.17918 8.56971 8.56971C8.17918 8.96023 7.54602 8.96023 7.15549 8.56971L5.39299 6.8072C5.00247 6.41668 5.00247 5.78352 5.39299 5.39299Z" fill="white"/>
<path fill-rule="evenodd" clip-rule="evenodd" d="M1 16C1 15.4477 1.44772 15 2 15H4.5C5.05228 15 5.5 15.4477 5.5 16C5.5 16.5523 5.05228 17 4.5 17H2C1.44772 17 1 16.5523 1 16Z" fill="white"/>
<path fill-rule="evenodd" clip-rule="evenodd" d="M8.56971 23.4303C8.96023 23.8209 8.96023 24.454 8.5697 24.8446L6.8072 26.6071C6.41668 26.9976 5.78351 26.9976 5.39299 26.6071C5.00247 26.2165 5.00247 25.5834 5.39299 25.1928L7.15549 23.4303C7.54602 23.0398 8.17918 23.0398 8.56971 23.4303Z" fill="white"/>
<path fill-rule="evenodd" clip-rule="evenodd" d="M16 26.5C16.5523 26.5 17 26.9477 17 27.5V30C17 30.5523 16.5523 31 16 31C15.4477 31 15 30.5523 15 30V27.5C15 26.9477 15.4477 26.5 16 26.5Z" fill="white"/>
<path fill-rule="evenodd" clip-rule="evenodd" d="M23.4306 23.4303C23.8211 23.0398 24.4543 23.0398 24.8448 23.4303L26.6073 25.1928C26.9978 25.5834 26.9978 26.2165 26.6073 26.6071C26.2168 26.9976 25.5836 26.9976 25.1931 26.6071L23.4306 24.8446C23.0401 24.454 23.0401 23.8209 23.4306 23.4303Z" fill="white"/>
<path fill-rule="evenodd" clip-rule="evenodd" d="M26.5 16C26.5 15.4477 26.9477 15 27.5 15H30C30.5523 15 31 15.4477 31 16C31 16.5523 30.5523 17 30 17H27.5C26.9477 17 26.5 16.5523 26.5 16Z" fill="white"/>
<path fill-rule="evenodd" clip-rule="evenodd" d="M26.6073 5.39299C26.9978 5.78351 26.9978 6.41668 26.6073 6.8072L24.8448 8.5697C24.4543 8.96023 23.8211 8.96023 23.4306 8.56971C23.0401 8.17918 23.0401 7.54602 23.4306 7.15549L25.1931 5.39299C25.5836 5.00247 26.2168 5.00247 26.6073 5.39299Z" fill="white"/>
</svg>
