<svg width="32" height="32" viewBox="0 0 32 32" fill="none" xmlns="http://www.w3.org/2000/svg">
<path d="M27 26H26.9788C26.4475 25.9975 25.95 25.7887 25.5763 25.4125C25.2025 25.0363 24.9975 24.535 25 24V22.9713C24.995 21.9062 24.5763 20.9062 23.82 20.1562C23.6162 19.9538 23.395 19.7775 23.1588 19.6262C24.8813 18.35 26 16.3038 26 14V12.9925C25.99 11.745 25.66 10.535 25.0387 9.4625C25.6562 7.47 25.4187 5.3225 24.3662 3.5C24.1875 3.19125 23.8575 3 23.5 3C21.1175 3 18.9137 4.1125 17.5025 6H14.4987C13.0862 4.1125 10.8837 3 8.5 3C8.1425 3 7.8125 3.19 7.63375 3.5C6.58 5.32375 6.34375 7.47 6.96125 9.4625C6.34 10.535 6.01 11.7463 6 13V14C6 16.3038 7.11875 18.35 8.84125 19.6262C8.605 19.7775 8.38375 19.9538 8.18 20.1562C7.42375 20.9062 7.005 21.9062 7 22.9675V24.0037C7.005 25.1 6.11625 25.995 5.025 26H5C4.4475 26 4 26.4475 4 27C4 27.5525 4.4475 28 5 28H5.02875C7.2275 27.9912 9.00875 26.195 9 24V22.9788C9.0025 22.4475 9.21125 21.95 9.5875 21.5763C9.9625 21.205 10.4587 21 10.9913 21H12.5V26.0212C12.4975 26.5525 12.2887 27.05 11.9125 27.4237C11.5375 27.795 11.0413 28 10.5138 28C10.51 28 10.505 28 10.5012 28C9.95125 28 9.50375 28.445 9.50125 28.9963C9.49875 29.5487 9.945 29.9988 10.4975 30H10.515C11.5738 30 12.57 29.59 13.3225 28.8438C14.0788 28.0938 14.4975 27.0938 14.5025 26.0325V21H17.5025V26.0287C17.5075 27.0938 17.9262 28.0938 18.6825 28.8438C19.435 29.59 20.4312 30 21.49 30H21.5075C22.06 29.9975 22.505 29.5475 22.5037 28.9963C22.5012 28.445 22.0537 28 21.5037 28H21.4912C20.9637 28 20.4675 27.795 20.0925 27.4237C19.715 27.05 19.5063 26.5513 19.505 26.025V21H21.0088C21.5425 21 22.04 21.2025 22.4163 21.5763C22.7938 21.95 23.0025 22.4487 23.0037 22.975V23.9963C22.9988 25.0613 23.41 26.065 24.16 26.8213C24.91 27.5775 25.91 27.9963 26.9788 28.0012H27.0037C27.5562 28.0012 28.0037 27.5537 28.0037 27.0012C28.0037 26.4487 27.5562 26.0012 27.0037 26.0012L27 26ZM8 14V13.0075C8.0075 11.9837 8.315 10.9962 8.89 10.1487C9.07375 9.8775 9.11375 9.53375 8.995 9.2275C8.46625 7.85625 8.5075 6.3575 9.095 5.03125C10.745 5.20875 12.225 6.1175 13.1313 7.5375C13.315 7.825 13.6325 7.99875 13.9738 7.99875H18.0238C18.365 7.99875 18.6825 7.825 18.8663 7.5375C19.7738 6.1175 21.2525 5.20875 22.9025 5.03125C23.4888 6.35625 23.53 7.85625 23.0025 9.2275C22.885 9.53375 22.9237 9.8775 23.1087 10.1487C23.6838 10.9962 23.9913 11.9838 23.9988 13V14C23.9988 16.7575 21.7563 19 18.9987 19H12.9987C10.2413 19 7.99875 16.7575 7.99875 14H8Z" fill="black"/>
</svg>
